<svg width="41" height="41" viewBox="0 0 41 41" fill="none" xmlns="http://www.w3.org/2000/svg">
<path fill-rule="evenodd" clip-rule="evenodd" d="M10.4227 16.9772C10.4227 11.3697 14.8925 6.8999 20.5 6.8999C26.1075 6.8999 30.5773 11.3697 30.5773 16.9772C30.5773 22.5847 26.1075 27.0544 20.5 27.0544C14.8925 27.0544 10.4227 22.5847 10.4227 16.9772ZM20.5 9.0999C16.1075 9.0999 12.6227 12.5847 12.6227 16.9772C12.6227 21.3697 16.1075 24.8544 20.5 24.8544C24.8925 24.8544 28.3773 21.3697 28.3773 16.9772C28.3773 12.5847 24.8925 9.0999 20.5 9.0999Z" fill="black"/>
<path fill-rule="evenodd" clip-rule="evenodd" d="M20.4 27.0999C15.3275 27.0999 10.7516 29.6217 7.89649 33.6373C7.54446 34.1324 6.8577 34.2484 6.36258 33.8964C5.86746 33.5444 5.75146 32.8576 6.10349 32.3625C9.34922 27.7975 14.5781 24.8999 20.4 24.8999C26.2218 24.8999 31.4508 27.7975 34.6965 32.3625C35.0485 32.8576 34.9325 33.5444 34.4374 33.8964C33.9423 34.2484 33.2555 34.1324 32.9035 33.6373C30.0484 29.6217 25.4725 27.0999 20.4 27.0999Z" fill="black"/>
</svg>
