<svg width="41" height="41" viewBox="0 0 41 41" fill="none" xmlns="http://www.w3.org/2000/svg">
<path fill-rule="evenodd" clip-rule="evenodd" d="M11.0906 12.9378C11.1462 12.407 11.5937 12.0039 12.1274 12.0039H28.807C29.3407 12.0039 29.7882 12.407 29.8438 12.9378L31.9287 32.849C31.9595 33.1428 31.8642 33.4358 31.6665 33.6553C31.4688 33.8747 31.1873 34 30.8919 34H10.0425C9.7471 34 9.46559 33.8747 9.2679 33.6553C9.07022 33.4358 8.97491 33.1428 9.00567 32.849L11.0906 12.9378ZM13.0664 14.0888L11.1998 31.9151H29.7346L27.8679 14.0888H13.0664Z" fill="black"/>
<path fill-rule="evenodd" clip-rule="evenodd" d="M10.3553 27.6411C10.3553 27.0654 10.822 26.5986 11.3978 26.5986H29.5368C30.1125 26.5986 30.5792 27.0654 30.5792 27.6411C30.5792 28.2168 30.1125 28.6836 29.5368 28.6836H11.3978C10.822 28.6836 10.3553 28.2168 10.3553 27.6411Z" fill="black"/>
<path fill-rule="evenodd" clip-rule="evenodd" d="M20.5714 9.08494C19.0431 9.08494 17.861 10.3052 17.861 11.6911V15.3398C17.861 15.9155 17.3943 16.3822 16.8185 16.3822C16.2428 16.3822 15.7761 15.9155 15.7761 15.3398V11.6911C15.7761 9.11569 17.9299 7 20.5714 7C21.8872 7 23.0915 7.5246 23.9147 8.3478C23.9336 8.36667 23.9517 8.38625 23.9691 8.40651C24.7084 9.26906 25.2625 10.3347 25.2625 11.6911V15.3398C25.2625 15.9155 24.7958 16.3822 24.2201 16.3822C23.6443 16.3822 23.1776 15.9155 23.1776 15.3398V11.6911C23.1776 10.9757 22.9077 10.3819 22.4134 9.79548C21.9846 9.38155 21.3245 9.08494 20.5714 9.08494Z" fill="black"/>
<rect x="21.5" y="0.5" width="19" height="15" rx="7.5" fill="black"/>
<path d="M28.0273 7.886C28.0273 6.61733 28.2547 5.62367 28.7093 4.905C29.1713 4.18633 29.934 3.827 30.9973 3.827C32.0607 3.827 32.8197 4.18633 33.2743 4.905C33.7363 5.62367 33.9673 6.61733 33.9673 7.886C33.9673 9.162 33.7363 10.163 33.2743 10.889C32.8197 11.615 32.0607 11.978 30.9973 11.978C29.934 11.978 29.1713 11.615 28.7093 10.889C28.2547 10.163 28.0273 9.162 28.0273 7.886ZM32.4493 7.886C32.4493 7.34333 32.4127 6.88867 32.3393 6.522C32.2733 6.148 32.134 5.84367 31.9213 5.609C31.716 5.37433 31.408 5.257 30.9973 5.257C30.5867 5.257 30.275 5.37433 30.0623 5.609C29.857 5.84367 29.7177 6.148 29.6443 6.522C29.5783 6.88867 29.5453 7.34333 29.5453 7.886C29.5453 8.44333 29.5783 8.91267 29.6443 9.294C29.7103 9.668 29.8497 9.97233 30.0623 10.207C30.275 10.4343 30.5867 10.548 30.9973 10.548C31.408 10.548 31.7197 10.4343 31.9323 10.207C32.145 9.97233 32.2843 9.668 32.3503 9.294C32.4163 8.91267 32.4493 8.44333 32.4493 7.886Z" fill="white"/>
<rect x="21.5" y="0.5" width="19" height="15" rx="7.5" stroke="white"/>
</svg>
