<svg width="71" height="72" viewBox="0 0 71 72" fill="none" xmlns="http://www.w3.org/2000/svg">
<path d="M29.8183 69.0238L2.52516 41.7307C-0.64771 38.5578 -0.64771 33.4424 2.52516 30.2695L29.8183 2.97633C32.9912 -0.196538 38.1066 -0.196538 41.2795 2.97633L68.5727 30.2695C70.1591 31.8559 70.9361 33.928 70.9361 36.0001C70.9361 38.0722 70.1591 40.1442 68.5727 41.7307L41.2795 69.0238C38.1066 72.1643 32.9912 72.1643 29.8183 69.0238Z" fill="url(#paint0_linear_1_260)"/>
<path d="M65.1736 39.6909L55.914 48.9505L39.2726 65.6242C38.269 66.6279 36.9739 67.1135 35.6789 67.1459C34.3191 67.1783 32.9269 66.6603 31.8585 65.6242L5.95751 39.6909C3.91781 37.6512 3.91781 34.3488 5.95751 32.3091L12.2385 25.9957L31.8585 6.37572C33.8982 4.33602 37.2329 4.33602 39.2726 6.37572L65.1736 32.3091C67.2133 34.3488 67.2133 37.6512 65.1736 39.6909Z" fill="url(#paint1_linear_1_260)"/>
<path d="M23.8291 47.9793C23.5377 42.8962 28.6531 30.917 36.3587 32.6977C38.1394 33.1186 40.5028 34.1222 42.3806 38.3959C44.2585 42.6696 46.2658 45.033 46.201 48.1735C46.1363 51.055 44.388 52.3824 37.9775 51.7349C37.3623 51.6701 36.9091 51.573 35.2255 51.6054C34.4808 51.6054 33.3801 51.7673 32.7325 51.8968C26.1602 53.1271 24.0233 51.2493 23.8291 47.9793Z" fill="url(#paint2_linear_1_260)"/>
<path d="M53.4206 37.3598C51.8665 40.4356 48.6937 41.9572 46.395 40.7917C44.0962 39.6262 43.4811 36.1619 45.0352 33.0862C46.5892 30.0104 49.7621 28.4887 52.0608 29.6543C54.3595 30.8198 55.007 34.2841 53.4206 37.3598Z" fill="url(#paint3_linear_1_260)"/>
<path d="M46.4918 27.3233C45.391 30.5933 42.5095 32.5682 40.0489 31.7588C37.5883 30.9494 36.4876 27.6147 37.556 24.3447C38.6244 21.0747 41.5382 19.0997 43.9988 19.9091C46.4594 20.7185 47.5926 24.0209 46.4918 27.3233Z" fill="url(#paint4_linear_1_260)"/>
<path d="M17.6125 35.1907C18.8104 38.4283 21.7567 40.3385 24.1849 39.432C26.6131 38.5254 27.6491 35.1907 26.4512 31.9531C25.2533 28.7155 22.307 26.8053 19.8788 27.7118C17.4506 28.6183 16.4146 31.9531 17.6125 35.1907Z" fill="url(#paint5_linear_1_260)"/>
<path d="M25.7066 26.0605C26.4188 29.4276 29.0413 31.7587 31.5667 31.2407C34.092 30.7227 35.6137 27.5498 34.9014 24.1827C34.1891 20.8156 31.5667 18.4845 29.0413 19.0025C26.516 19.5205 25.0267 22.6934 25.7066 26.0605Z" fill="url(#paint6_linear_1_260)"/>
<path d="M65.1734 39.6909L55.9138 48.9505C54.9425 49.0152 54.0036 49.0476 53 49.0476C35.6787 49.0476 20.559 39.8204 12.2383 25.9957L31.8583 6.37572C33.898 4.33602 37.2327 4.33602 39.2724 6.37572L65.1734 32.3091C67.2131 34.3488 67.2131 37.6512 65.1734 39.6909Z" fill="url(#paint7_linear_1_260)"/>
<defs>
<linearGradient id="paint0_linear_1_260" x1="35.5494" y1="0.612868" x2="35.5494" y2="67.3394" gradientUnits="userSpaceOnUse">
<stop stop-color="#4E4D4C"/>
<stop offset="0.2634" stop-color="#4A4949"/>
<stop offset="0.5238" stop-color="#3E4040"/>
<stop offset="1" stop-color="#2D2C30"/>
</linearGradient>
<linearGradient id="paint1_linear_1_260" x1="4.4075" y1="35.999" x2="66.6926" y2="35.999" gradientUnits="userSpaceOnUse">
<stop stop-color="#F2EB99"/>
<stop offset="0.2219" stop-color="#F2EC9D"/>
<stop offset="0.4656" stop-color="#F4EEAB"/>
<stop offset="0.7187" stop-color="#F6F1C1"/>
<stop offset="0.9708" stop-color="#F9F5DE"/>
</linearGradient>
<linearGradient id="paint2_linear_1_260" x1="36.6993" y1="19.3854" x2="34.78" y2="51.4153" gradientUnits="userSpaceOnUse">
<stop stop-color="#4E4D4C"/>
<stop offset="0.2634" stop-color="#4A4949"/>
<stop offset="0.5238" stop-color="#3E4040"/>
<stop offset="1" stop-color="#2D2C30"/>
</linearGradient>
<linearGradient id="paint3_linear_1_260" x1="42.5895" y1="48.247" x2="28.0025" y2="76.8275" gradientUnits="userSpaceOnUse">
<stop stop-color="#4E4D4C"/>
<stop offset="0.2634" stop-color="#4A4949"/>
<stop offset="0.5238" stop-color="#3E4040"/>
<stop offset="1" stop-color="#2D2C30"/>
</linearGradient>
<linearGradient id="paint4_linear_1_260" x1="39.2695" y1="34.0041" x2="29.0881" y2="64.4328" gradientUnits="userSpaceOnUse">
<stop stop-color="#4E4D4C"/>
<stop offset="0.2634" stop-color="#4A4949"/>
<stop offset="0.5238" stop-color="#3E4040"/>
<stop offset="1" stop-color="#2D2C30"/>
</linearGradient>
<linearGradient id="paint5_linear_1_260" x1="2.97656" y1="-18.2333" x2="14.0436" y2="11.8842" gradientUnits="userSpaceOnUse">
<stop stop-color="#4E4D4C"/>
<stop offset="0.2634" stop-color="#4A4949"/>
<stop offset="0.5238" stop-color="#3E4040"/>
<stop offset="1" stop-color="#2D2C30"/>
</linearGradient>
<linearGradient id="paint6_linear_1_260" x1="22.9045" y1="-10.8271" x2="29.3798" y2="20.5997" gradientUnits="userSpaceOnUse">
<stop stop-color="#4E4D4C"/>
<stop offset="0.2634" stop-color="#4A4949"/>
<stop offset="0.5238" stop-color="#3E4040"/>
<stop offset="1" stop-color="#2D2C30"/>
</linearGradient>
<linearGradient id="paint7_linear_1_260" x1="12.233" y1="26.9467" x2="66.6924" y2="26.9467" gradientUnits="userSpaceOnUse">
<stop stop-color="white" stop-opacity="0.5"/>
<stop offset="0.0331796" stop-color="white" stop-opacity="0.4834"/>
<stop offset="1" stop-color="white" stop-opacity="0"/>
</linearGradient>
</defs>
</svg>
