<svg width="27" height="28" viewBox="0 0 27 28" fill="none" xmlns="http://www.w3.org/2000/svg">
<path d="M7.9013 0.666016H19.1013C23.368 0.666016 26.8346 4.13268 26.8346 8.39935V19.5993C26.8346 21.6504 26.0199 23.6174 24.5696 25.0676C23.1193 26.5179 21.1523 27.3327 19.1013 27.3327H7.9013C3.63464 27.3327 0.167969 23.866 0.167969 19.5993V8.39935C0.167969 6.34834 0.982728 4.38134 2.43301 2.93106C3.88329 1.48078 5.85029 0.666016 7.9013 0.666016ZM7.63463 3.33268C6.3616 3.33268 5.1407 3.8384 4.24052 4.73857C3.34035 5.63874 2.83464 6.85964 2.83464 8.13268V19.866C2.83464 22.5193 4.9813 24.666 7.63463 24.666H19.368C20.641 24.666 21.8619 24.1603 22.7621 23.2601C23.6623 22.36 24.168 21.1391 24.168 19.866V8.13268C24.168 5.47935 22.0213 3.33268 19.368 3.33268H7.63463ZM20.5013 5.33268C20.9433 5.33268 21.3673 5.50828 21.6798 5.82084C21.9924 6.1334 22.168 6.55732 22.168 6.99935C22.168 7.44138 21.9924 7.8653 21.6798 8.17786C21.3673 8.49042 20.9433 8.66602 20.5013 8.66602C20.0593 8.66602 19.6353 8.49042 19.3228 8.17786C19.0102 7.8653 18.8346 7.44138 18.8346 6.99935C18.8346 6.55732 19.0102 6.1334 19.3228 5.82084C19.6353 5.50828 20.0593 5.33268 20.5013 5.33268ZM13.5013 7.33268C15.2694 7.33268 16.9651 8.03506 18.2153 9.2853C19.4656 10.5355 20.168 12.2312 20.168 13.9993C20.168 15.7675 19.4656 17.4632 18.2153 18.7134C16.9651 19.9636 15.2694 20.666 13.5013 20.666C11.7332 20.666 10.0375 19.9636 8.78726 18.7134C7.53701 17.4632 6.83463 15.7675 6.83463 13.9993C6.83463 12.2312 7.53701 10.5355 8.78726 9.2853C10.0375 8.03506 11.7332 7.33268 13.5013 7.33268ZM13.5013 9.99935C12.4404 9.99935 11.423 10.4208 10.6729 11.1709C9.92273 11.9211 9.5013 12.9385 9.5013 13.9993C9.5013 15.0602 9.92273 16.0776 10.6729 16.8278C11.423 17.5779 12.4404 17.9993 13.5013 17.9993C14.5622 17.9993 15.5796 17.5779 16.3297 16.8278C17.0799 16.0776 17.5013 15.0602 17.5013 13.9993C17.5013 12.9385 17.0799 11.9211 16.3297 11.1709C15.5796 10.4208 14.5622 9.99935 13.5013 9.99935Z" fill="black"/>
</svg>
