<svg width="27" height="28" viewBox="0 0 27 28" fill="none" xmlns="http://www.w3.org/2000/svg">
<path d="M9.55464 26.7193C10.8346 27.106 12.128 27.3327 13.5013 27.3327C17.0375 27.3327 20.4289 25.9279 22.9294 23.4274C25.4299 20.927 26.8346 17.5356 26.8346 13.9993C26.8346 12.2484 26.4898 10.5146 25.8197 8.8969C25.1496 7.27923 24.1675 5.80937 22.9294 4.57126C21.6913 3.33314 20.2214 2.35102 18.6037 1.68096C16.9861 1.01089 15.2523 0.666016 13.5013 0.666016C11.7503 0.666016 10.0165 1.01089 8.39886 1.68096C6.78118 2.35102 5.31133 3.33314 4.07321 4.57126C1.57273 7.07174 0.167969 10.4631 0.167969 13.9993C0.167969 19.666 3.72797 24.5327 8.75463 26.4527C8.63463 25.4127 8.51463 23.6927 8.75463 22.506L10.288 15.9193C10.288 15.9193 9.9013 15.146 9.9013 13.9193C9.9013 12.0793 11.048 10.706 12.3546 10.706C13.5013 10.706 14.0346 11.546 14.0346 12.626C14.0346 13.7727 13.2746 15.4127 12.888 16.986C12.6613 18.2927 13.5813 19.4393 14.9146 19.4393C17.288 19.4393 19.128 16.906 19.128 13.3327C19.128 10.1327 16.8346 7.94602 13.5413 7.94602C9.7813 7.94602 7.56797 10.746 7.56797 13.6927C7.56797 14.8393 7.9413 15.9993 8.55464 16.7593C8.67463 16.8393 8.67464 16.946 8.63463 17.146L8.24797 18.5993C8.24797 18.826 8.1013 18.906 7.87464 18.746C6.16797 17.9993 5.1813 15.5727 5.1813 13.6127C5.1813 9.39935 8.16797 5.57268 13.928 5.57268C18.5146 5.57268 22.088 8.86602 22.088 13.2393C22.088 17.826 19.248 21.506 15.1813 21.506C13.888 21.506 12.6213 20.8127 12.168 19.9993L11.2746 23.1593C10.968 24.306 10.128 25.8393 9.55464 26.7593V26.7193Z" fill="black"/>
</svg>
