<svg width="25" height="25" viewBox="0 0 25 25" fill="none" xmlns="http://www.w3.org/2000/svg">
<path fill-rule="evenodd" clip-rule="evenodd" d="M0.599976 11.3001C0.599976 5.44781 5.44769 0.600098 11.3 0.600098C17.259 0.600098 22 5.45454 22 11.3001C22 17.2591 17.1455 22.0001 11.3 22.0001C5.44769 22.0001 0.599976 17.1524 0.599976 11.3001ZM11.3 2.6001C6.55226 2.6001 2.59998 6.55238 2.59998 11.3001C2.59998 16.0478 6.55226 20.0001 11.3 20.0001C16.0544 20.0001 20 16.1411 20 11.3001C20 6.54566 16.141 2.6001 11.3 2.6001Z" fill="black"/>
<path fill-rule="evenodd" clip-rule="evenodd" d="M17.3929 17.393C17.7834 17.0025 18.4166 17.0025 18.8071 17.393L24.1071 22.693C24.4976 23.0835 24.4976 23.7167 24.1071 24.1072C23.7166 24.4977 23.0834 24.4977 22.6929 24.1072L17.3929 18.8072C17.0023 18.4167 17.0023 17.7835 17.3929 17.393Z" fill="black"/>
</svg>
