<svg width="27" height="20" viewBox="0 0 27 20" fill="none" xmlns="http://www.w3.org/2000/svg">
<path d="M10.8346 13.9993L17.7546 9.99935L10.8346 5.99935V13.9993ZM26.248 3.55935C26.4213 4.18602 26.5413 5.02601 26.6213 6.09268C26.7146 7.15935 26.7546 8.07935 26.7546 8.87935L26.8346 9.99935C26.8346 12.9193 26.6213 15.066 26.248 16.4393C25.9146 17.6393 25.1413 18.4127 23.9413 18.746C23.3146 18.9193 22.168 19.0393 20.408 19.1193C18.6746 19.2127 17.088 19.2527 15.6213 19.2527L13.5013 19.3327C7.91463 19.3327 4.43464 19.1193 3.0613 18.746C1.8613 18.4127 1.08797 17.6393 0.754635 16.4393C0.581302 15.8127 0.461302 14.9727 0.381302 13.906C0.287969 12.8393 0.247969 11.9193 0.247969 11.1193L0.167969 9.99935C0.167969 7.07935 0.381302 4.93268 0.754635 3.55935C1.08797 2.35935 1.8613 1.58602 3.0613 1.25268C3.68797 1.07935 4.83464 0.959349 6.59464 0.879349C8.32797 0.786015 9.91463 0.746016 11.3813 0.746016L13.5013 0.666016C19.088 0.666016 22.568 0.879349 23.9413 1.25268C25.1413 1.58602 25.9146 2.35935 26.248 3.55935Z" fill="black"/>
</svg>
